<svg width="21" height="19" viewBox="0 0 21 19" fill="none" xmlns="http://www.w3.org/2000/svg">
<path d="M10.5085 17.355L9.8014 18.0621C9.98893 18.2497 10.2433 18.355 10.5085 18.355C10.7737 18.355 11.0281 18.2497 11.2156 18.0621L10.5085 17.355ZM2.55588 9.40242L1.84877 10.1095H1.84877L2.55588 9.40242ZM9.22255 2.73575L8.51544 3.44286L8.51544 3.44286L9.22255 2.73575ZM10.5085 4.02171L9.8014 4.72882C10.1919 5.11934 10.8251 5.11934 11.2156 4.72882L10.5085 4.02171ZM11.7945 2.73575L11.0874 2.02865L11.0874 2.02865L11.7945 2.73575ZM11.2156 16.6479L3.26299 8.69531L1.84877 10.1095L9.8014 18.0621L11.2156 16.6479ZM17.754 8.69531L9.8014 16.6479L11.2156 18.0621L19.1682 10.1095L17.754 8.69531ZM8.51544 3.44286L9.8014 4.72882L11.2156 3.3146L9.92966 2.02865L8.51544 3.44286ZM11.2156 4.72882L12.5016 3.44286L11.0874 2.02865L9.8014 3.3146L11.2156 4.72882ZM15.1278 0.355042C13.6123 0.355042 12.1589 0.957055 11.0874 2.02865L12.5016 3.44286C13.1981 2.74634 14.1428 2.35504 15.1278 2.35504V0.355042ZM18.8418 6.06909C18.8418 7.05411 18.4505 7.9988 17.754 8.69531L19.1682 10.1095C20.2398 9.03794 20.8418 7.58455 20.8418 6.06909H18.8418ZM20.8418 6.06909C20.8418 2.91331 18.2836 0.355042 15.1278 0.355042V2.35504C17.179 2.35504 18.8418 4.01788 18.8418 6.06909H20.8418ZM5.88922 2.35504C6.87424 2.35504 7.81892 2.74634 8.51544 3.44286L9.92966 2.02865C8.85806 0.957056 7.40467 0.355042 5.88922 0.355042V2.35504ZM2.17517 6.06909C2.17517 4.01788 3.83801 2.35504 5.88922 2.35504V0.355042C2.73344 0.355042 0.175171 2.91331 0.175171 6.06909H2.17517ZM3.26299 8.69531C2.56647 7.99879 2.17517 7.05411 2.17517 6.06909H0.175171C0.175171 7.58455 0.777183 9.03793 1.84877 10.1095L3.26299 8.69531Z" fill="#8996B8" fill-opacity="0.6"/>
</svg>
