<svg width="14" height="14" viewBox="0 0 14 14" fill="none" xmlns="http://www.w3.org/2000/svg">
<path d="M11.9922 4.81208C11.9922 5.03309 12.08 5.24505 12.2363 5.40133C12.3925 5.55761 12.6045 5.64541 12.8255 5.64541C13.0465 5.64541 13.2585 5.55761 13.4148 5.40133C13.571 5.24505 13.6588 5.03309 13.6588 4.81208V1.22041C13.6588 0.999395 13.571 0.787434 13.4148 0.631153C13.2585 0.474873 13.0465 0.387075 12.8255 0.387075H9.24218C9.02116 0.387075 8.8092 0.474873 8.65292 0.631153C8.49664 0.787434 8.40884 0.999395 8.40884 1.22041C8.40884 1.44142 8.49664 1.65338 8.65292 1.80966C8.8092 1.96594 9.02116 2.05374 9.24218 2.05374H10.8172L6.99218 5.87874L2.12551 1.02041C1.96609 0.883887 1.76103 0.812548 1.5513 0.820649C1.34157 0.82875 1.14262 0.915694 0.994208 1.06411C0.845796 1.21252 0.758852 1.41147 0.750751 1.6212C0.74265 1.83093 0.813989 2.03599 0.950511 2.19541L5.80884 7.05374L0.567177 12.2954C0.48907 12.3729 0.427075 12.465 0.384768 12.5666C0.342461 12.6681 0.320679 12.7771 0.320679 12.8871C0.320679 12.9971 0.342461 13.106 0.384768 13.2076C0.427075 13.3091 0.48907 13.4013 0.567177 13.4787C0.644646 13.5568 0.736814 13.6188 0.838363 13.6612C0.939913 13.7035 1.04883 13.7252 1.15884 13.7252C1.26885 13.7252 1.37778 13.7035 1.47932 13.6612C1.58087 13.6188 1.67304 13.5568 1.75051 13.4787L11.9922 3.23708V4.81208Z" fill="#8996B8" fill-opacity="0.6"/>
<path d="M12.8255 8.45374C12.6045 8.45374 12.3925 8.54154 12.2362 8.69782C12.0799 8.8541 11.9921 9.06606 11.9921 9.28708V10.8787L9.67548 8.55374C9.51856 8.39682 9.30573 8.30867 9.08381 8.30867C8.8619 8.30867 8.64907 8.39682 8.49215 8.55374C8.33523 8.71066 8.24707 8.92349 8.24707 9.14541C8.24707 9.36733 8.33523 9.58016 8.49215 9.73708L10.8005 12.0537H9.23381C9.0128 12.0537 8.80084 12.1415 8.64456 12.2978C8.48828 12.4541 8.40048 12.6661 8.40048 12.8871C8.40048 13.1081 8.48828 13.3201 8.64456 13.4763C8.80084 13.6326 9.0128 13.7204 9.23381 13.7204H12.8255C12.9431 13.7211 13.0595 13.6969 13.1671 13.6495C13.2747 13.602 13.371 13.5322 13.4497 13.4449C13.5284 13.3575 13.5877 13.2545 13.6238 13.1425C13.6598 13.0306 13.6718 12.9123 13.6588 12.7954V9.28708C13.6588 9.06606 13.571 8.8541 13.4147 8.69782C13.2585 8.54154 13.0465 8.45374 12.8255 8.45374Z" fill="#8996B8" fill-opacity="0.6"/>
</svg>
