<svg width="28" height="25" viewBox="0 0 28 25" fill="none" xmlns="http://www.w3.org/2000/svg">
<path d="M2.3606 1.92942L3.28033 0.744471C2.82797 0.39336 2.21518 0.330429 1.7009 0.582271C1.18662 0.834114 0.860596 1.35678 0.860596 1.92942H2.3606ZM2.3606 23.0589H0.860596C0.860596 23.6316 1.18662 24.1542 1.7009 24.4061C2.21518 24.6579 2.82797 24.595 3.28033 24.2439L2.3606 23.0589ZM15.9718 12.4942L16.8915 13.6791C17.2576 13.395 17.4718 12.9576 17.4718 12.4942C17.4718 12.0308 17.2576 11.5934 16.8915 11.3092L15.9718 12.4942ZM0.860596 1.92942V23.0589H3.8606V1.92942H0.860596ZM3.28033 24.2439L16.8915 13.6791L15.0521 11.3092L1.44086 21.874L3.28033 24.2439ZM16.8915 11.3092L3.28033 0.744471L1.44086 3.11436L15.0521 13.6791L16.8915 11.3092ZM24.1941 0.87294V24.1154H27.1941V0.87294H24.1941Z" fill="#EAF0FF"/>
</svg>
