<svg width="28" height="25" viewBox="0 0 28 25" fill="none" xmlns="http://www.w3.org/2000/svg">
<path d="M25.8241 23.0589L24.9044 24.2439C25.3567 24.595 25.9695 24.6579 26.4838 24.4061C26.9981 24.1542 27.3241 23.6316 27.3241 23.0589H25.8241ZM25.8241 1.92941H27.3241C27.3241 1.35677 26.9981 0.834103 26.4838 0.58226C25.9695 0.330418 25.3567 0.393351 24.9044 0.744465L25.8241 1.92941ZM12.213 12.4942L11.2933 11.3092C10.9272 11.5934 10.713 12.0308 10.713 12.4942C10.713 12.9576 10.9272 13.395 11.2933 13.6791L12.213 12.4942ZM27.3241 23.0589V1.92941H24.3241V23.0589H27.3241ZM24.9044 0.744465L11.2933 11.3092L13.1327 13.6791L26.7438 3.11435L24.9044 0.744465ZM11.2933 13.6791L24.9044 24.2439L26.7438 21.874L13.1327 11.3092L11.2933 13.6791ZM3.99079 24.1154V0.872931H0.990788V24.1154H3.99079Z" fill="#EAF0FF"/>
</svg>
