<svg width="15" height="16" viewBox="0 0 15 16" fill="none" xmlns="http://www.w3.org/2000/svg">
<path d="M3.42616 3.88707H11.7595V5.37874C11.7595 5.75374 12.2095 5.93707 12.4678 5.67041L14.7928 3.34541C14.9595 3.17874 14.9595 2.92041 14.7928 2.75374L12.4678 0.428741C12.4091 0.371156 12.3346 0.332248 12.2538 0.316922C12.1729 0.301596 12.0894 0.310538 12.0136 0.34262C11.9379 0.374702 11.8733 0.428489 11.8281 0.497202C11.7829 0.565915 11.759 0.64648 11.7595 0.728741V2.22041H2.59282C2.13449 2.22041 1.75949 2.59541 1.75949 3.05374V6.38707C1.75949 6.84541 2.13449 7.22041 2.59282 7.22041C3.05116 7.22041 3.42616 6.84541 3.42616 6.38707V3.88707ZM11.7595 12.2204H3.42616V10.7287C3.42616 10.3537 2.97616 10.1704 2.71782 10.4371L0.392822 12.7621C0.226156 12.9287 0.226156 13.1871 0.392822 13.3537L2.71782 15.6787C2.77657 15.7363 2.85105 15.7752 2.93187 15.7906C3.01269 15.8059 3.09624 15.7969 3.17199 15.7649C3.24774 15.7328 3.3123 15.679 3.35753 15.6103C3.40276 15.5416 3.42664 15.461 3.42616 15.3787V13.8871H12.5928C13.0512 13.8871 13.4262 13.5121 13.4262 13.0537V9.72041C13.4262 9.26207 13.0512 8.88707 12.5928 8.88707C12.1345 8.88707 11.7595 9.26207 11.7595 9.72041V12.2204Z" fill="#8996B8" fill-opacity="0.6"/>
</svg>
