<svg width="16" height="18" viewBox="0 0 16 18" fill="none" xmlns="http://www.w3.org/2000/svg">
<path d="M5.25891 13.0459L5.6446 12.4027L5.46653 12.2959H5.25891V13.0459ZM5.25891 5.05113V5.80113H5.46653L5.6446 5.69437L5.25891 5.05113ZM11.9256 1.05374H12.6756C12.6756 0.783576 12.5303 0.534289 12.2952 0.401145C12.0601 0.268001 11.7716 0.271578 11.5399 0.410511L11.9256 1.05374ZM11.9256 17.0433L11.5399 17.6865C11.7716 17.8255 12.0601 17.8291 12.2952 17.6959C12.5303 17.5628 12.6756 17.3135 12.6756 17.0433H11.9256ZM5.25891 12.2959H2.59224V13.7959H5.25891V12.2959ZM2.59224 12.2959C2.26951 12.2959 2.00891 12.0351 2.00891 11.7135H0.508911C0.508911 12.8655 1.44298 13.7959 2.59224 13.7959V12.2959ZM2.00891 11.7135V6.3836H0.508911V11.7135H2.00891ZM2.00891 6.3836C2.00891 6.06191 2.26951 5.80113 2.59224 5.80113V4.30113C1.44298 4.30113 0.508911 5.23158 0.508911 6.3836H2.00891ZM2.59224 5.80113H5.25891V4.30113H2.59224V5.80113ZM5.6446 5.69437L12.3113 1.69697L11.5399 0.410511L4.87322 4.4079L5.6446 5.69437ZM11.1756 1.05374V17.0433H12.6756V1.05374H11.1756ZM12.3113 16.4001L5.6446 12.4027L4.87322 13.6892L11.5399 17.6865L12.3113 16.4001ZM13.8422 7.05374V11.0537H15.3422V7.05374H13.8422Z" fill="#8996B8" fill-opacity="0.6"/>
</svg>
